HIERARCHY
ROOT Hips
{
	OFFSET 0.00000 0.00000 0.00000
	CHANNELS 6 Xposition Yposition Zposition Zrotation Yrotation Xrotation 
	JOINT LHipJoint
	{
		OFFSET 0 0 0
		CHANNELS 3 Zrotation Yrotation Xrotation
		JOINT LeftUpLeg
		{
			OFFSET 1.40001 -1.72600 0.84541
			CHANNELS 3 Zrotation Yrotation Xrotation
			JOINT LeftLeg
			{
				OFFSET 2.34760 -6.44999 0.00000
				CHANNELS 3 Zrotation Yrotation Xrotation
				JOINT LeftFoot
				{
					OFFSET 2.50650 -6.88655 0.00000
					CHANNELS 3 Zrotation Yrotation Xrotation
					JOINT LeftToeBase
					{
						OFFSET 0.12464 -0.34243 1.95563
						CHANNELS 3 Zrotation Yrotation Xrotation
						End Site
						{
							OFFSET 0.00000 -0.00000 1.00479
						}
					}
				}
			}
		}
	}
	JOINT RHipJoint
	{
		OFFSET 0 0 0
		CHANNELS 3 Zrotation Yrotation Xrotation
		JOINT RightUpLeg
		{
			OFFSET -1.40958 -1.72600 0.84541
			CHANNELS 3 Zrotation Yrotation Xrotation
			JOINT RightLeg
			{
				OFFSET -2.37905 -6.53640 0.00000
				CHANNELS 3 Zrotation Yrotation Xrotation
				JOINT RightFoot
				{
					OFFSET -2.50470 -6.88163 0.00000
					CHANNELS 3 Zrotation Yrotation Xrotation
					JOINT RightToeBase
					{
						OFFSET -0.12236 -0.33619 1.81785
						CHANNELS 3 Zrotation Yrotation Xrotation
						End Site
						{
							OFFSET -0.00000 -0.00000 0.93746
						}
					}
				}
			}
		}
	}
	JOINT LowerBack
	{
		OFFSET 0 0 0
		CHANNELS 3 Zrotation Yrotation Xrotation
		JOINT Spine
		{
			OFFSET -0.02146 1.96915 0.26424
			CHANNELS 3 Zrotation Yrotation Xrotation
			JOINT Spine1
			{
				OFFSET 0.01522 1.99484 0.02086
				CHANNELS 3 Zrotation Yrotation Xrotation
				JOINT Neck
				{
					OFFSET 0 0 0
					CHANNELS 3 Zrotation Yrotation Xrotation
					JOINT Neck1
					{
						OFFSET -0.02954 1.71757 0.03505
						CHANNELS 3 Zrotation Yrotation Xrotation
						JOINT Head
						{
							OFFSET 0.04170 1.65781 -0.11024
							CHANNELS 3 Zrotation Yrotation Xrotation
							End Site
							{
								OFFSET 0.01600 1.81465 -0.05144
							}
						}
					}
				}
				JOINT LeftShoulder
				{
					OFFSET 0 0 0
					CHANNELS 3 Zrotation Yrotation Xrotation
					JOINT LeftArm
					{
						OFFSET 2.77679 1.60868 -0.78649
						CHANNELS 3 Zrotation Yrotation Xrotation
						JOINT LeftForeArm
						{
							OFFSET 4.62672 -0.00000 -0.00000
							CHANNELS 3 Zrotation Yrotation Xrotation
							JOINT LeftHand
							{
								OFFSET 3.11018 -0.00000 -0.00000
								CHANNELS 3 Zrotation Yrotation Xrotation
								JOINT LeftFingerBase
								{
									OFFSET 0 0 0
									CHANNELS 3 Zrotation Yrotation Xrotation
									JOINT LeftHandIndex1
									{
										OFFSET 0.74383 -0.00000 -0.00000
										CHANNELS 3 Zrotation Yrotation Xrotation
										End Site
										{
											OFFSET 0.59970 -0.00000 -0.00000
										}
									}
								}
								JOINT LThumb
								{
									OFFSET 0 0 0
									CHANNELS 3 Zrotation Yrotation Xrotation
									End Site
									{
										OFFSET 0.60885 -0.00000 0.60885
									}
								}
							}
						}
					}
				}
				JOINT RightShoulder
				{
					OFFSET 0 0 0
					CHANNELS 3 Zrotation Yrotation Xrotation
					JOINT RightArm
					{
						OFFSET -2.73247 1.63658 -0.74740
						CHANNELS 3 Zrotation Yrotation Xrotation
						JOINT RightForeArm
						{
							OFFSET -4.55919 -0.00000 -0.00000
							CHANNELS 3 Zrotation Yrotation Xrotation
							JOINT RightHand
							{
								OFFSET -3.22748 -0.00000 -0.00000
								CHANNELS 3 Zrotation Yrotation Xrotation
								JOINT RightFingerBase
								{
									OFFSET 0 0 0
									CHANNELS 3 Zrotation Yrotation Xrotation
									JOINT RightHandIndex1
									{
										OFFSET -0.70088 -0.00000 -0.00000
										CHANNELS 3 Zrotation Yrotation Xrotation
										End Site
										{
											OFFSET -0.56507 -0.00000 -0.00000
										}
									}
								}
								JOINT RThumb
								{
									OFFSET 0 0 0
									CHANNELS 3 Zrotation Yrotation Xrotation
									End Site
									{
										OFFSET -0.57370 -0.00000 0.57370
									}
								}
							}
						}
					}
				}
			}
		}
	}
}
MOTION
Frames: 5
Frame Time: .0083333
-0.183 16.1291 -42.7166 0 0 0 0 0 0 -21 0 0 0 0 0 0 0 0 0 0 0 0 0 0 21 0 0 0 0 0 0 0 0 0 0 0 0 0 0 0 0 0 0 0 0 0 0 -16 0 0 21 0 0 11 0 0 0 -8 0 0 0 0 0 0 0 0 0 0 0 0 0 0 0 0 0 0 0 0 8 0 0 0 0 0 0 0 0 0 0 0 0 0 0 0 0 0
-0.1830 16.1291 -42.7166 5.3487 -2.8152 16.9449 0.0000 0.0000 0.0000 -23.6616 -14.0935 -41.7146 4.1639 12.3754 37.0731 0.3301 -6.4368 -10.5082 0.1920 -2.8216 -7.7824 0.0000 0.0000 0.0000 11.1977 4.4054 -21.4791 -12.8646 -18.7327 68.7044 -0.0450 8.4736 12.9129 -1.0846 6.6191 -18.5918 -8.5562 0.0804 -14.8168 -2.5306 1.4878 -4.2021 2.4154 0.7093 3.6779 -0.5884 -2.6290 -6.2088 1.9609 -3.6717 9.1454 0.5554 -1.7408 4.1638 0.0000 -0.0000 0.0000 -90.9646 13.1618 -36.8076 5.7168 -9.7890 -0.4900 -0.0000 -0.0000 43.1011 16.1482 -15.4677 -4.4156 -7.1250 0.0000 -0.0000 -7.7305 14.0130 5.6815 0.0000 -0.0000 0.0000 87.6052 -2.3022 30.2093 -31.2824 41.9676 -12.2583 0.0000 -0.0000 -22.2008 -18.8237 -38.1294 11.8861 7.1250 -0.0000 -0.0000 22.4313 -68.4134 -12.8483
-0.1781 16.1833 -42.5097 5.0476 -2.9336 17.0201 0.0000 0.0000 0.0000 -23.5990 -13.6063 -40.7972 4.0929 12.2830 36.7406 0.3683 -6.7575 -11.0937 0.0847 -1.8773 -5.1668 0.0000 0.0000 0.0000 11.4079 4.9399 -23.4291 -13.3929 -18.9195 70.3415 0.0334 7.7265 10.2698 -1.1754 6.8814 -19.3645 -8.2560 0.0543 -14.8452 -2.4538 1.4096 -4.1782 2.3164 0.6689 3.7339 -0.5260 -2.5687 -6.3553 1.9383 -3.5962 9.2103 0.5390 -1.7010 4.2133 -0.0000 0.0000 0.0000 -90.8252 12.1087 -36.1613 5.7082 -9.7745 -0.4885 -0.0000 -0.0000 43.3997 16.3582 -15.3765 -4.4504 -7.1250 0.0000 -0.0000 -7.5872 14.0867 5.5623 -0.0000 0.0000 0.0000 88.1792 -2.7975 29.3411 -29.9039 40.8109 -11.3467 0.0000 -0.0000 -21.4059 -18.3956 -38.9948 11.8197 7.1250 -0.0000 -0.0000 24.1430 -69.0455 -14.2100
-0.1706 16.2229 -42.3011 4.6370 -3.1855 17.1961 0.0000 0.0000 0.0000 -23.4542 -13.0425 -40.0971 4.0421 12.2162 36.5012 0.4227 -6.7899 -11.8038 0.0754 -1.7716 -4.8749 0.0000 0.0000 0.0000 11.6699 5.7664 -25.4233 -13.8516 -19.0684 71.7508 0.0587 6.8091 8.1063 -1.0735 6.5862 -18.4951 -7.7552 0.0195 -15.0240 -2.3466 1.3042 -4.1453 2.1347 0.6120 3.8878 -0.5483 -2.4814 -6.6709 1.9265 -3.4780 9.3255 0.5415 -1.6411 4.3169 -0.0000 0.0000 0.0000 -90.7967 11.0859 -34.6197 5.7801 -9.8948 -0.5008 -0.0000 -0.0000 42.9192 16.8119 -14.8039 -4.4146 -7.1250 0.0000 -0.0000 -7.2693 14.6323 5.2403 -0.0000 0.0000 0.0000 88.6342 -3.2324 28.8872 -28.5945 39.6578 -10.5009 0.0000 -0.0000 -20.4036 -18.3333 -40.2924 12.0949 7.1250 -0.0000 -0.0000 26.2037 -70.1483 -16.1158
-0.1644 16.2551 -42.1057 4.3503 -3.1797 17.3340 0.0000 0.0000 0.0000 -23.3961 -12.6851 -39.3630 3.9979 12.1576 36.2918 0.4800 -6.7775 -12.5072 0.1379 -2.3936 -6.5947 0.0000 0.0000 0.0000 11.8379 6.3216 -27.4428 -14.2632 -19.1919 73.0068 0.0651 5.8974 6.1813 -0.8967 6.0354 -16.8872 -7.4752 -0.1397 -15.7024 -2.1453 1.1357 -3.7186 2.1721 0.4919 4.7279 -0.6728 -2.3898 -6.9551 1.9251 -3.3335 8.9719 0.5696 -1.5750 4.2473 -0.0000 -0.0000 0.0000 -90.8824 9.4334 -33.1381 5.8705 -10.0460 -0.5164 -0.0000 -0.0000 42.2852 16.9347 -14.6813 -4.4128 -7.1250 0.0000 -0.0000 -7.1835 14.7471 5.1597 -0.0000 -0.0000 0.0000 88.8936 -3.1583 28.9606 -27.5763 38.7233 -9.8575 0.0000 -0.0000 -20.5545 -18.0706 -39.4267 11.7071 7.1250 -0.0000 -0.0000 25.1635 -69.3189 -14.9897
